<?xml version="1.0" encoding="utf-8"?>
<!-- Generator: Adobe Illustrator 21.0.0, SVG Export Plug-In . SVG Version: 6.00 Build 0)  -->
<svg version="1.1" id="Layer_1" xmlns="http://www.w3.org/2000/svg" xmlns:xlink="http://www.w3.org/1999/xlink" x="0px" y="0px"
	 viewBox="0 0 295.4 266.7" style="enable-background:new 0 0 295.4 266.7;" xml:space="preserve">
<style type="text/css">
	.st0{fill:#FCFCFC;}
	.st1{fill:none;stroke:#FFFFFF;stroke-width:6;stroke-miterlimit:10;}
	.st2{fill:#FFFFFF;}
	.st3{fill:none;stroke:#FFFFFF;stroke-width:9;stroke-miterlimit:10;}
</style>
<title>balance-icon</title>
<path class="st0" d="M193.4,66.4l-6.6-5.4c11.2-13.7,9.2-33.9-4.5-45.1s-33.9-9.2-45.1,4.5c-4.7,5.7-7.3,12.9-7.3,20.3
	c0,7.2,2.4,14.1,6.8,19.8l-6.8,5.3c-5.6-7.1-8.6-15.9-8.6-25c0-22.5,18.2-40.6,40.7-40.6s40.6,18.2,40.6,40.7
	C202.6,50.1,199.4,59.2,193.4,66.4L193.4,66.4z"/>
<path class="st0" d="M164.9,37.4c-2-0.4-4-0.9-5.9-1.6c-1.9-0.7-3.1-1.7-3.1-3.3s0.9-3,3.1-3.7c1.2-0.4,2.5-0.5,3.8-0.5
	c0.7,0,1.4,0,2.1,0.1c2.8,0.4,5.6,1.3,8.1,2.7l2.6-6.4c-3.3-1.9-6.9-3-10.7-3.2v-4.1H159v4.3c-7.8,1.1-11.5,5.7-11.5,11.1
	c0,7.2,5.9,9.2,11.5,10.6c2.1,0.5,4.2,0.9,5.9,1.5c2.3,0.8,3.8,1.8,3.8,3.6c0,1.7-1.1,3-3.8,3.6c-1.1,0.2-2.1,0.3-3.2,0.3
	c-0.9,0-1.8-0.1-2.7-0.2c-3.4-0.4-6.6-1.7-9.4-3.6l-2.9,6.4c2.7,2.1,7.4,3.7,12.2,4.1v4.4h5.9V59c8.2-1,12.2-5.7,12.2-11.1
	C177.2,40.7,170.7,38.8,164.9,37.4z"/>
<path class="st1" d="M94.3,67.5"/>
<path class="st0" d="M80.8,69.6c-4.7-6-7.2-13.3-7.2-20.9c0-18.8,15.2-34,34-34c6.5,0,12.8,1.8,18.3,5.3l-4.6,7.2
	c-11.8-7.6-27.5-4.1-35.1,7.7c-5.8,9.1-5.3,20.9,1.4,29.4L80.8,69.6z"/>
<path class="st0" d="M109.9,46c-1.6-0.3-3.2-0.7-4.8-1.3c-1.5-0.6-2.5-1.4-2.5-2.7s0.8-2.4,2.5-3c1-0.3,2.1-0.4,3.1-0.4
	c0.6,0,1.1,0,1.7,0.1c2.3,0.3,4.6,1.1,6.6,2.3l2.1-5.2c-2.7-1.5-5.6-2.4-8.7-2.6v-3.3h-4.8v3.5c-6.3,0.9-9.4,4.7-9.4,9.1
	c0,5.9,4.8,7.5,9.4,8.6c1.7,0.4,3.4,0.8,4.8,1.2c1.9,0.6,3.1,1.4,3.1,2.9s-0.9,2.5-3.1,3c-0.9,0.2-1.7,0.3-2.6,0.2
	c-0.7,0-1.5-0.1-2.2-0.2c-2.8-0.4-5.4-1.4-7.7-3l-2.3,5.2c2.2,1.7,6,3,10,3.3v3.6h4.8v-3.7c6.7-0.8,10-4.7,10-9.1
	C119.9,48.7,114.7,47.2,109.9,46z"/>
<path class="st0" d="M251.6,266.7H41.5C18.6,266.7,0,248.1,0,225.3V97.5C0,74.6,18.6,56.1,41.5,56h210.2c24.1,0,43.7,19.6,43.7,43.7
	V223C295.3,247.1,275.8,266.7,251.6,266.7z M41.5,75.1c-12.4,0-22.4,10-22.4,22.4v127.7c0,12.4,10,22.4,22.4,22.4h210.2
	c13.6,0,24.7-11,24.7-24.7V99.8c0-13.6-11.1-24.7-24.7-24.7C251.7,75.1,41.5,75.1,41.5,75.1z"/>
<path class="st0" d="M294.9,208.3h-86.2c-22.4,0-40.5-18.1-40.5-40.5s18.1-40.5,40.5-40.5h86.2V208.3z M208.7,146.4
	c-11.8,0-21.4,9.6-21.4,21.4c0,11.8,9.6,21.4,21.4,21.4h67.1v-42.9h-67.1V146.4z"/>
<circle class="st2" cx="211.1" cy="169.2" r="12.9"/>
<rect x="99.3" y="96.4" class="st0" width="186.5" height="19.1"/>
<path class="st3" d="M62.2,106"/>
<rect x="9.5" y="96.4" class="st0" width="39.3" height="19.1"/>
<path class="st3" d="M181.2,71.7"/>
<line class="st3" x1="37.8" y1="71.7" x2="37.8" y2="71.7"/>
<path class="st0" d="M46,66.6l-15-3c4-18.9,20.6-32.4,39.8-32.5h2v15.2h-2C58.8,46.4,48.4,54.8,46,66.6z"/>
<path class="st3" d="M75.2,38.8"/>
<path class="st3" d="M181.2,38.8"/>
</svg>
