<?xml version="1.0" encoding="utf-8"?>
<!-- Generator: Adobe Illustrator 21.0.2, SVG Export Plug-In . SVG Version: 6.00 Build 0)  -->
<svg version="1.1" id="Layer_1" xmlns="http://www.w3.org/2000/svg" xmlns:xlink="http://www.w3.org/1999/xlink" x="0px" y="0px"
	 viewBox="0 0 300 300" style="enable-background:new 0 0 300 300;" xml:space="preserve">
<style type="text/css">
	.st0{fill:none;stroke:#FFFFFF;stroke-width:12;stroke-miterlimit:10;}
	.st1{fill:#FFFFFF;stroke:#FFFFFF;stroke-miterlimit:10;}
</style>
<g>
	<path class="st0" d="M270.1,238.6H29.9c-9.9,0-17.9-8-17.9-17.9V79.3c0-9.9,8-17.9,17.9-17.9h240.1c9.9,0,17.9,8,17.9,17.9v141.4
		C287.9,230.6,279.9,238.6,270.1,238.6z"/>
	<line class="st0" x1="54.7" y1="61.5" x2="54.7" y2="238.6"/>
	<line class="st0" x1="54.7" y1="114.5" x2="287.9" y2="114.5"/>
	<path class="st0" d="M226.8,158.7c17.5,3.1,30.7,18.5,30.7,36.9"/>
	<path class="st0" d="M182.6,195.6c0-12.7,6.4-24.1,16.2-30.8"/>
	<line class="st0" x1="89.5" y1="160.7" x2="138" y2="160.7"/>
	<line class="st0" x1="89.5" y1="195.3" x2="138" y2="195.3"/>
	<polygon class="st1" points="222.2,154.8 222.2,195.6 199.3,154.8 	"/>
</g>
</svg>
