<?xml version="1.0" encoding="utf-8"?>
<!-- Generator: Adobe Illustrator 21.0.0, SVG Export Plug-In . SVG Version: 6.00 Build 0)  -->
<svg version="1.1" id="Layer_1" xmlns="http://www.w3.org/2000/svg" xmlns:xlink="http://www.w3.org/1999/xlink" x="0px" y="0px"
	 viewBox="0 0 300 300" style="enable-background:new 0 0 300 300;" xml:space="preserve">
<style type="text/css">
	.st0{fill:none;stroke:#FFFFFF;stroke-width:12;stroke-miterlimit:10;}
	.st1{fill:#FFFFFF;stroke:#FFFFFF;stroke-miterlimit:10;}
</style>
<g>
	<path class="st0" d="M271.2,241.6H31c-9.9,0-17.9-8-17.9-17.9V82.3c0-9.9,8-17.9,17.9-17.9H271c9.9,0,17.9,8,17.9,17.9v141.4
		C289,233.6,281,241.6,271.2,241.6z"/>
	<line class="st0" x1="55.8" y1="64.5" x2="55.8" y2="241.6"/>
	<line class="st0" x1="55.8" y1="117.5" x2="289" y2="117.5"/>
	<path class="st0" d="M227.9,161.7c17.5,3.1,30.7,18.5,30.7,36.9"/>
	<path class="st0" d="M183.7,198.6c0-12.7,6.4-24.1,16.2-30.8"/>
	<line class="st0" x1="90.6" y1="163.7" x2="139.1" y2="163.7"/>
	<line class="st0" x1="90.6" y1="198.3" x2="139.1" y2="198.3"/>
	<polygon class="st1" points="223.3,157.8 223.3,198.6 200.4,157.8 	"/>
</g>
</svg>
