<svg id="Layer_1" data-name="Layer 1" xmlns="http://www.w3.org/2000/svg" viewBox="0 0 294.1 293.6">
  <title>exchange</title>
  <g>
    <polygon points="111.1 117.3 98.6 147.1 144.8 223.6 144.8 117.3 111.1 117.3" fill="#fff"/>
    <polygon points="61.8 147.9 84.1 117.3 210.4 117.3 232.8 147.9 144.8 223.6 61.8 147.9" fill="none" stroke="#fff" stroke-miterlimit="10" stroke-width="10"/>
    <line x1="151.1" y1="147.9" x2="232.8" y2="147.9" fill="none" stroke="#fff" stroke-miterlimit="10" stroke-width="10"/>
    <line x1="61.8" y1="147.8" x2="93.7" y2="147.8" fill="none" stroke="#fff" stroke-miterlimit="10" stroke-width="10"/>
    <line x1="153.4" y1="117.3" x2="182.5" y2="147.9" fill="none" stroke="#fff" stroke-miterlimit="10" stroke-width="10"/>
    <line x1="209.6" y1="117.3" x2="182.5" y2="147.9" fill="none" stroke="#fff" stroke-miterlimit="10" stroke-width="10"/>
    <line x1="144.8" y1="223.6" x2="181.2" y2="149.6" fill="none" stroke="#fff" stroke-miterlimit="10" stroke-width="10"/>
    <path d="M266.34,65.1a141.86,141.86,0,0,0-249.4,47.5l22,10.9-9.5-41.3" transform="translate(-6.14 -4.2)" fill="none" stroke="#fff" stroke-miterlimit="10" stroke-width="10"/>
    <polygon points="266.5 35.7 232.8 65 272.5 73.2 266.5 35.7" fill="#fff"/>
    <path d="M17,190.1A141.86,141.86,0,0,0,295.24,151c0-2.7-.1-5.3-.2-7.9h-26.1l21.9,43.3" transform="translate(-6.14 -4.2)" fill="none" stroke="#fff" stroke-miterlimit="10" stroke-width="10"/>
    <polygon points="0 217.5 41.8 201.6 7.3 180.2 0 217.5" fill="#fff"/>
  </g>
</svg>
