<?xml version="1.0" encoding="utf-8"?>
<!-- Generator: Adobe Illustrator 21.0.2, SVG Export Plug-In . SVG Version: 6.00 Build 0)  -->
<svg version="1.1" id="Layer_1" xmlns="http://www.w3.org/2000/svg" xmlns:xlink="http://www.w3.org/1999/xlink" x="0px" y="0px"
	 viewBox="0 0 300 300" style="enable-background:new 0 0 300 300;" xml:space="preserve">
<style type="text/css">
	.st0{fill:#FFFFFF;stroke:#FFFFFF;stroke-width:4;stroke-miterlimit:10;}
	.st1{fill:#FFFFFF;stroke:#FFFFFF;stroke-width:5;stroke-miterlimit:10;}
</style>
<g>
	<path class="st0" d="M227.1,138.3c-7.7-9-15.4-18-23.2-26.9c-3.5-4.1-7.2,0.1-9.6,2.8l-19,19.6l-13.9-14.6c4.7,0,9.5,0,14.2,0
		c7,0,7-10.9,0-10.9c-8.2,0-56.5,0-72.2,0c-0.5-0.1-1.2,0.3-2.1,0.8c-1.3,0.8-5.8,6.3-5.8,6.3l-19.5,24.1l0,0
		c-1.5,2.2-1.4,5.4,0.4,7.3l0,0l68,66c2.1,1.9,4.6,2.9,7.3,2.9s5.3-0.9,7.3-2.9l68.8-65.9l0,0C230.2,144.5,229.3,141,227.1,138.3z
		 M199.7,124.4c3.8,4.3,7.5,8.7,11.2,13c-7.9,0-15.9,0-23.9,0L199.7,124.4z M151.1,124l12.8,13.5c-8.3,0-16.6,0-25,0L151.1,124z
		 M140.7,119.2l-14.2,15.7l-14.4-15.7C121.7,119.2,131.2,119.2,140.7,119.2z M102.3,124.6l11.9,12.9c-7.5,0-14.9,0-22.4,0
		L102.3,124.6z M93.9,148.4c9.6,0,19.3,0,28.9,0l16.5,44.1L93.9,148.4z M151.4,193.5l-16.9-45.2c11,0,21.8,0,32.8,0L151.4,193.5z
		 M162.7,194.4l16.2-46c10.6,0,21.3,0,31.8,0L162.7,194.4z"/>
</g>
<path class="st1" d="M31.5,131.9C41.3,72.6,92.2,29.5,152.3,29.5c29.7,0,58,10.8,80.1,30L188,59.6v14.6l70-0.2l-14.3-63l-14.2,3.2
	l6.7,29.7c-23.8-18.5-53.3-28.8-84-28.8C85,14.9,28.1,63.1,17.1,129.4c-0.2,1-0.3,2.1-0.5,3.1l14.5,2.1
	C31.2,133.6,31.3,132.7,31.5,131.9z"/>
<path class="st1" d="M289,142.3l-14.6,1c0.2,2.9,0.3,5.9,0.3,8.8c0,67.6-55,122.5-122.5,122.5c-47.8,0-91.1-28.3-111-70.6l39.6,16.5
	l5.6-13.4l-64.6-27l-11.2,63.7l14.4,2.6l5.6-31.4c23.2,44.7,70.1,74.2,121.8,74.2c75.6,0,137.1-61.5,137.1-137.1
	C289.4,148.8,289.3,145.6,289,142.3z"/>
</svg>
