<svg id="Layer_1" data-name="Layer 1" xmlns="http://www.w3.org/2000/svg" viewBox="0 0 203.89 52.07">
  <title>imove-logo</title>
  <g>
    <rect x="7.85" y="16.47" width="5.17" height="35.6" fill="#5c0002"/>
    <path d="M13.08,1.34V12.61a.88.88,0,0,1-1.51.62L.32,1.95A.88.88,0,0,1,.94.44H12.2A.89.89,0,0,1,13.08,1.34Z" transform="translate(-0.06 -0.44)" fill="#ff1d23"/>
    <path d="M37.88,22.14H29.45V52.5H24.39V17.08h13.5q8,0,12.21,3.81,1.28-3.81,6.34-3.81h6.75q16.87,0,16.87,16.87V52.5H75V33.95q0-11.81-11.81-11.81H56.44a1.49,1.49,0,0,0-1.69,1.69V52.5H49.69V33.95Q49.69,22.14,37.88,22.14Z" transform="translate(-0.06 -0.44)" fill="#94090d"/>
    <path d="M87.38,28.89q0-11.81,11.81-11.81H111q11.81,0,11.81,11.81V40.7q0,11.81-11.81,11.81H99.19q-11.81,0-11.81-11.81Zm11.81-6.75q-6.75,0-6.75,6.75V40.7q0,6.75,6.75,6.75H111q6.75,0,6.75-6.75V28.89q0-6.75-6.75-6.75Z" transform="translate(-0.06 -0.44)" fill="#d40d12"/>
    <path d="M145.9,46.26l12.18-29.18h5.5L148.74,52.5H143L128.15,17.08h5.53Z" transform="translate(-0.06 -0.44)" fill="#ff1d23"/>
    <path d="M192.14,47.44q6.75,0,6.75-6.75h5.06q0,11.81-11.81,11.81H180.33q-11.81,0-11.81-11.81V28.89q0-11.81,11.81-11.81h11.81q11.81,0,11.81,10.12,0,7.36-5.13,8.43l-25.2,5.74q.3,6.07,6.71,6.07Zm-11.81-25.3q-6.75,0-6.75,6.75v7.25l23.92-5.5a1.77,1.77,0,0,0,1.38-1.75q0-6.75-6.75-6.75Z" transform="translate(-0.06 -0.44)" fill="#450003"/>
  </g>
</svg>
