<?xml version="1.0" encoding="utf-8"?>
<!-- Generator: Adobe Illustrator 21.0.0, SVG Export Plug-In . SVG Version: 6.00 Build 0)  -->
<svg version="1.1" id="Capa_1" xmlns="http://www.w3.org/2000/svg" xmlns:xlink="http://www.w3.org/1999/xlink" x="0px" y="0px"
	 viewBox="0 0 399.3 420" style="enable-background:new 0 0 399.3 420;" xml:space="preserve">
<style type="text/css">
	.st0{fill:#FFFFFF;}
</style>
<title>notice-icon</title>
<g>
	<path class="st0" d="M320.6,240h-15.5v-83.5C304.6,96.1,257,47.5,198.8,48C141.2,48.5,94.7,96.8,94.2,156.5V240H78.7
		c-15.7,0-28.4,13.2-28.4,29.5c0,16.3,12.7,29.5,28.4,29.5h241.9c15.7,0,28.4-13.2,28.4-29.5C349,253.2,336.3,240,320.6,240z"/>
	<path class="st0" d="M199.6,373.2C199.6,373.2,199.6,373.2,199.6,373.2c31.4,0,56.9-26.4,56.9-59H142.8
		C142.8,346.8,168.2,373.2,199.6,373.2z"/>
</g>
</svg>
