<?xml version="1.0" encoding="utf-8"?>
<!-- Generator: Adobe Illustrator 21.0.0, SVG Export Plug-In . SVG Version: 6.00 Build 0)  -->
<svg version="1.1" id="Capa_1" xmlns="http://www.w3.org/2000/svg" xmlns:xlink="http://www.w3.org/1999/xlink" x="0px" y="0px"
	 viewBox="0 0 489.9 489.9" style="enable-background:new 0 0 489.9 489.9;" xml:space="preserve">
<style type="text/css">
	.st0{fill:#A6B7BF;}
</style>
<g>
	<g>
		<path class="st0" d="M49.6,285.5c-6.4-69,23-131.4,71.9-171.1c19-15.5,47.5-2.2,47.5,22.2l0,0c0,9-4.3,17.3-11.2,22.9
			c-34.6,28.2-55.4,72.7-50.4,121.8c6.6,64,57.8,115.8,121.7,122.9c83.4,9.3,154.2-56,154.2-137.5c0-43.2-20-81.9-51.3-107.3
			c-6.9-5.6-11.1-13.9-11.1-22.8l0,0c0-24.2,28-37.9,46.9-22.8c44.7,36,73.3,91.1,73.3,152.9c0,112.9-95.9,203.9-210.6,195.7
			C135.7,455.7,58.4,380.1,49.6,285.5z M244.9,27c-16,0-28.9,13-28.9,28.9v133.2c0,16,13,28.9,28.9,28.9s28.9-13,28.9-28.9V55.9
			C273.8,40,260.9,27,244.9,27z"/>
	</g>
</g>
</svg>
