<?xml version="1.0" encoding="utf-8"?>
<!-- Generator: Adobe Illustrator 21.0.0, SVG Export Plug-In . SVG Version: 6.00 Build 0)  -->
<svg version="1.1" id="Layer_1" xmlns="http://www.w3.org/2000/svg" xmlns:xlink="http://www.w3.org/1999/xlink" x="0px" y="0px"
	 viewBox="0 0 296.7 335.9" style="enable-background:new 0 0 296.7 335.9;" xml:space="preserve">
<style type="text/css">
	.st0{fill:#FFFFFF;}
	.st1{fill:#939598;}
</style>
<title>rate-icon</title>
<g>
	<path class="st0" d="M261.9,221.1c-6.3,0-12.6-1.1-18.6-3.3c-10.3,19.1-25.9,34.8-45,45.1c2.3,6.1,3.5,12.6,3.5,19.1
		c0,0.9,0,1.8-0.1,2.7c28-13.2,50.5-35.7,63.5-63.7C264.1,221.1,263,221.1,261.9,221.1z"/>
	<path class="st0" d="M244.3,115.9c5.7-2,11.6-3,17.6-3c1.5,0,2.9,0.1,4.3,0.2c-12.9-29-35.8-52.4-64.5-65.9
		c0.1,1.1,0.1,2.1,0.1,3.2c0,6.4-1.1,12.7-3.3,18.7C218.1,79.7,234.1,96,244.3,115.9z"/>
	<g>
		<path class="st0" d="M33,113c5.3,0,10.5,0.8,15.5,2.3c10.7-20.4,27.4-37,48-47.5c-1.9-5.6-2.9-11.5-2.9-17.4c0-1.5,0.1-3,0.2-4.6
			c-30.2,13.3-54.4,37.4-67.7,67.6C28.4,113.2,30.7,113,33,113z"/>
		<path class="st0" d="M96.6,264.3c-20-10.1-36.4-26.1-47.1-45.7c-5.3,1.7-10.9,2.6-16.5,2.6c-1.9,0-3.9-0.1-5.8-0.3
			c13.5,29.2,37.2,52.4,66.6,65.4c-0.1-1.4-0.2-2.7-0.2-4.1C93.6,276,94.6,270,96.6,264.3z"/>
	</g>
	<path class="st0" d="M153.6,43.9c-4-0.8-7.8-1.8-11.7-3.1c-3.7-1.4-6.2-3.3-6.2-6.5c0-3.2,1.8-5.8,6.2-7.3c2.5-0.7,5-1.1,7.6-1
		c1.4,0,2.7,0.1,4.1,0.3c5.6,0.7,11.1,2.6,16,5.5l5.2-12.8c-5.8-3.6-13.4-5.7-21.2-6.3V4.5h-11.7V13c-15.4,2.2-22.8,11.4-22.8,22
		c0,14.2,11.7,18.3,22.8,21c4.2,1,8.4,1.9,11.7,3c4.5,1.5,7.6,3.5,7.6,7.2c0,3.3-2.3,6-7.6,7.2c-2.1,0.4-4.2,0.6-6.4,0.6
		c-1.8,0-3.6-0.1-5.3-0.4c-6.7-0.9-13.1-3.3-18.6-7.2l-5.7,12.7c5.5,4.2,14.6,7.3,24.3,8.2v8.8h11.7v-9
		c16.3-1.9,24.3-11.3,24.3-22.1C177.9,50.4,165.1,46.6,153.6,43.9z"/>
	<path class="st0" d="M281.3,163.8c4.6-2.3,7.4-6.5,6.7-13.4c-0.9-9.4-9.7-12.6-19.8-13.5v-13h-6.3v12.7l-6.3,0.1v-12.8h-6.1v13
		c-1.7,0-5.8,0.1-7.5,0.1l0,0h-10.8v8.5c0,0,8.1-0.1,8,0c3.2,0,4.2,1.9,4.5,3.5v14.9h0.8h-0.9v20.8c-0.1,1.5-1.4,2.7-2.9,2.6
		c0,0,0,0,0,0c0.1,0.1-8,0-8,0l-1.6,9.5h10.2h8.2v13.2h5.9V197c2.2,0,4.2,0.1,6.3,0.1v13h6.9v-13.2c13.2-0.8,22.8-4.1,24-16.7
		C293.5,170.2,288.8,165.7,281.3,163.8z M255,146.1c4.4,0,18.4-1.4,18.4,7.9c0,9-13.9,7.9-18.4,7.9V146.1z M255,187.5V170
		c5.3,0,22-1.5,22,8.7C277,188.6,260.3,187.5,255,187.5z"/>
	<path class="st0" d="M59.2,187.8c-4,1.9-8.3,2.9-12.6,2.9c-5.6,0-10.8-1.7-14.3-5.7c-1.9-2.2-3.1-4.9-3.7-7.8h27.9v-7.9H27v-1.8
		c0-1.2,0-2.3,0.1-3.5h29.4v-7.9H28.8c0.6-2.7,1.8-5.1,3.6-7.2c3.4-4,8.4-6.2,13.6-6c4.3,0.1,8.5,1,12.4,2.7l3.1-12.7
		c-5.3-2.2-11-3.4-16.7-3.3c-9.8-0.2-19.3,4-25.7,11.5c-3.8,4.3-6.4,9.5-7.7,15.2H4v7.9h6.2c0,1.2-0.1,2.2-0.1,3.3v1.9H4v7.9h7.2
		c0.8,5.3,2.9,10.2,6.2,14.4c6.2,8.2,16.1,12.7,27.1,12.7c6,0,12-1.4,17.4-4.2L59.2,187.8z"/>
	<path class="st0" d="M180.1,288.4l-32.4,12l-32.5-12l32.4-55.6L180.1,288.4z"/>
	<path class="st0" d="M178.7,295.1l-31,36.3l-31-36.3l31,11.5L178.7,295.1z"/>
	<path class="st0" d="M147.7,306.5l31-11.5l-31,36.3V306.5z"/>
	<path class="st0" d="M180.1,288.4l-32.4,12v-67.7L180.1,288.4z"/>
	<polygon class="st1" points="115.3,288.4 147.7,272.2 180.1,288.4 147.7,300.4 	"/>
</g>
</svg>
