<?xml version="1.0" encoding="utf-8"?>
<!-- Generator: Adobe Illustrator 21.0.0, SVG Export Plug-In . SVG Version: 6.00 Build 0)  -->
<svg version="1.1" id="Capa_1" xmlns="http://www.w3.org/2000/svg" xmlns:xlink="http://www.w3.org/1999/xlink" x="0px" y="0px"
	 viewBox="0 0 79.5 79.5" style="enable-background:new 0 0 79.5 79.5;" xml:space="preserve">
<style type="text/css">
	.st0{fill:#333333;}
</style>
<g>
	<path class="st0" d="M36.1,60.8V42.1c-6.9-1.7-11.9-4.2-15.2-7.5c-3.2-3.4-4.8-7.4-4.8-12.2c0-4.9,1.8-9,5.5-12.3
		c3.6-3.3,8.5-5.2,14.5-5.7V0h7.6v4.4c5.6,0.6,10,2.2,13.3,4.8c3.3,2.7,5.4,6.2,6.3,10.6L50,21.3c-0.8-3.5-2.9-5.9-6.3-7.1v17.4
		c8.4,1.9,14.2,4.4,17.2,7.5c3.1,3.1,4.6,7,4.6,11.8c0,5.4-1.9,9.9-5.8,13.6c-3.8,3.7-9.2,5.9-16,6.8v8.3h-7.6v-8.1
		c-6.1-0.6-11-2.5-14.8-5.7C17.5,62.5,15,58,14,52.1l13.8-1.2c0.6,2.4,1.6,4.4,3.2,6.1C32.5,58.8,34.2,60,36.1,60.8z M36.1,14.1
		c-2.1,0.6-3.7,1.6-5,3c-1.2,1.4-1.8,3-1.8,4.7c0,1.6,0.6,3,1.7,4.4c1.1,1.4,2.8,2.4,5.1,3.3L36.1,14.1L36.1,14.1z M43.7,61.4
		c2.6-0.4,4.8-1.4,6.4-3.1c1.7-1.7,2.5-3.6,2.5-5.8c0-2-0.7-3.7-2.1-5.1c-1.4-1.4-3.7-2.5-6.8-3.3V61.4z"/>
</g>
</svg>
