<?xml version="1.0" encoding="utf-8"?>
<!-- Generator: Adobe Illustrator 21.0.0, SVG Export Plug-In . SVG Version: 6.00 Build 0)  -->
<svg version="1.1" id="Capa_1" xmlns="http://www.w3.org/2000/svg" xmlns:xlink="http://www.w3.org/1999/xlink" x="0px" y="0px"
	 viewBox="0 0 512 512" style="enable-background:new 0 0 512 512;" xml:space="preserve">
<style type="text/css">
	.st0{fill:#A6B7BF;}
</style>
<g>
	<g>
		<path class="st0" d="M404.5,317.5c-22.9-22.9-50.1-39.8-79.8-50c31.8-21.9,52.7-58.6,52.7-100.1C377.4,100.5,322.9,46,256,46
			s-121.4,54.5-121.4,121.4c0,41.4,20.9,78.2,52.7,100.1c-29.7,10.3-56.9,27.2-79.8,50C67.8,357.1,46,409.9,46,466h32.8
			c0-97.7,79.5-177.2,177.2-177.2S433.2,368.3,433.2,466H466C466,409.9,444.2,357.1,404.5,317.5z M256,256
			c-48.9,0-88.6-39.7-88.6-88.6s39.7-88.6,88.6-88.6s88.6,39.7,88.6,88.6S304.9,256,256,256z"/>
	</g>
</g>
</svg>
